
<svg width="1126px" height="207px" viewBox="0 0 1126 207" version="1.1" xmlns="http://www.w3.org/2000/svg" xmlns:xlink="http://www.w3.org/1999/xlink">
    <title>trees</title>
    <desc>Created with Sketch.</desc>
    <defs></defs>
    <g id="iOS" stroke="none" stroke-width="1" fill="none" fill-rule="evenodd">
        <g id="trees">
            <g id="Group-3">
                <polygon id="Path-12-Copy-7" fill="#172432" points="215.223925 203 217.522744 171.428701 192 174.251703 203.654183 149.149804 195.675824 147.694621 204.919919 133.479644 199.420696 133.595693 209.852683 113.909003 207.327808 114.358858 219.344824 96 231.811312 114.836095 229.131188 114.599215 239.157243 132.840285 234.016894 133.343166 248.718431 156.422239 241.283662 154.923593 250 168.573101 224.314531 171.395668 225.997194 202.589698"></polygon>
                <polygon id="Path-12-Copy-12" fill="#172432" transform="translate(96.500000, 153.500000) scale(-1, 1) translate(-96.500000, -153.500000) " points="92.2177375 202 93.9220346 161.765929 75 163.890457 83.6401702 144.999337 77.7251799 143.904199 84.5785607 133.20633 80.5015507 133.293666 88.2356099 118.477909 86.3637198 118.81646 95.2728865 105 104.515283 119.175618 102.528295 118.997347 109.961404 132.725163 106.150456 133.10362 117.049871 150.472407 111.537887 149.344559 118 159.616869 98.9573245 161.74107 100.204817 201.691216"></polygon>
                <polygon id="Path-12-Copy-4" fill="#13202D" points="690.035062 204 693.404022 167.976628 656 172.167476 673.079406 134.902801 661.386984 132.74253 674.934364 111.639883 666.875158 111.812163 682.163415 82.586561 678.463167 83.2543868 696.074311 56 714.344164 83.9628627 710.416397 83.6112057 725.109752 110.690732 717.576483 111.437277 739.121839 145.698994 728.226056 143.474199 741 163.737386 703.357502 167.927589 705.823475 203.390891"></polygon>
                <polygon id="Path-12-Copy-11" fill="#1D2E40" points="41.2424874 202 45.3248736 148.305092 0 153.369034 20.6962215 108.340885 6.5277565 105.730558 22.9439941 80.2315255 13.178133 80.4396967 31.7039028 45.1254279 27.2200729 45.932384 48.5606351 13 70.6993987 46.7884591 65.9398691 46.3635402 83.7447585 79.0846343 74.6162088 79.9867098 100.724111 121.386285 87.5209851 118.697991 103 143.182675 57.3861494 148.245837 60.374328 201.263994"></polygon>
                <polygon id="Path-12-Copy-9" fill="#172432" transform="translate(1022.000000, 125.000000) scale(-1, 1) translate(-1022.000000, -125.000000) " points="1014.033 202 1017.20379 152.200473 982 156.10029 998.074735 121.42344 987.070102 119.413188 999.820578 99.7760024 992.235443 99.9363182 1006.62439 72.7402721 1003.1418 73.361721 1019.717 48 1036.91215 74.0209973 1033.21543 73.6937609 1047.04447 98.8927643 1039.95434 99.5874662 1060.23232 131.469898 1049.97746 129.399602 1062 148.255623 1026.57177 152.15484 1028.89268 201.433191"></polygon>
                <polygon id="Path-12-Copy-6" fill="#13202D" transform="translate(869.000000, 167.500000) scale(-1, 1) translate(-869.000000, -167.500000) " points="865.41485 203 866.841703 179.434544 851 181.209834 858.233631 165.424103 853.281546 164.508989 859.01926 155.569673 855.605949 155.642652 862.080976 143.262363 860.513812 143.545261 867.972649 132 875.710469 143.845379 874.046945 143.696414 880.270013 155.167602 877.079452 155.483847 886.204544 169.997491 881.589859 169.055043 887 177.638754 871.057295 179.413771 872.101707 202.741975"></polygon>
                <polygon id="Path-12-Copy-3" fill="#172738" points="825.020625 205 827.002366 178.874931 805 181.377798 815.046709 159.122506 808.168814 157.832345 816.137861 145.229375 811.397152 145.332264 820.390244 127.878085 818.213628 128.276925 828.573124 112 839.320096 128.700043 837.009645 128.490026 845.652795 144.66252 841.221461 145.108374 853.895199 165.570233 847.485915 164.241536 855 176.343161 832.857354 178.845644 834.307926 204.636227"></polygon>
                <polygon id="Path-12-Copy-13" fill="#1D2C3C" points="979.020625 201 981.002366 164.874931 959 167.377798 969.046709 145.122506 962.168814 143.832345 970.137861 131.229375 965.397152 131.332264 974.390244 113.878085 972.213628 114.276925 982.573124 98 993.320096 114.700043 991.009645 114.490026 999.652795 130.66252 995.221461 131.108374 1007.8952 151.570233 1001.48592 150.241536 1009 162.343161 986.857354 164.845644 988.307926 200.636227"></polygon>
                <polygon id="Path-12-Copy-2" fill="#182738" points="256.035062 203 259.404022 166.976628 222 171.167476 239.079406 133.902801 227.386984 131.74253 240.934364 110.639883 232.875158 110.812163 248.163415 81.586561 244.463167 82.2543868 262.074311 55 280.344164 82.9628627 276.416397 82.6112057 291.109752 109.690732 283.576483 110.437277 305.121839 144.698994 294.226056 142.474199 307 162.737386 269.357502 166.927589 271.823475 202.390891"></polygon>
                <polygon id="Path-12-Copy" fill="#172432" points="397.43135 202 400.443596 163.53478 367 167.259979 382.270998 134.135823 371.816597 132.215583 383.929549 113.457674 376.723671 113.610811 390.393171 87.6324987 387.084714 88.2261216 402.831148 64 419.166547 88.855878 415.654661 88.543294 428.792249 112.613984 422.05662 113.27758 441.320703 143.73244 431.578591 141.754844 443 159.766566 409.343178 163.491191 411.548048 201.45857"></polygon>
                <polygon id="Path-12-Copy-10" fill="#1D2E40" points="1061.24455 203 1065.52511 142.303631 1018 147.629501 1039.70089 100.27231 1024.84464 97.5269657 1042.05778 70.7090182 1031.81785 70.9279569 1051.24293 33.787088 1046.54144 34.6357832 1068.91795 1.13686838e-13 1092.13141 35.536138 1087.14083 35.0892406 1105.81004 69.502805 1096.23835 70.4515396 1123.61363 113.992472 1109.76958 111.165128 1126 136.916262 1078.17188 142.241312 1081.30512 202.225924"></polygon>
                <polygon id="Path-12-Copy-5" fill="#1D2E40" transform="translate(770.500000, 104.500000) scale(-1, 1) translate(-770.500000, -104.500000) " points="758.449912 207 763.245725 161.411172 710 167.37731 734.313037 114.326905 717.668529 111.251519 736.953624 81.2095559 725.481108 81.4548151 747.244391 39.8489237 741.976979 40.7996478 767.04696 2 793.054633 41.8082421 787.463341 41.3076192 808.379765 79.8583335 797.655935 80.9211236 828.326383 129.696485 812.815915 126.529242 831 155.37614 777.414797 161.34136 780.925181 206.132866"></polygon>
                <polygon id="Path-12" fill="#1D2E40" points="323.24455 202 327.52511 161.303631 280 166.629501 301.700892 119.27231 286.844638 116.526966 304.05778 89.7090182 293.817848 89.9279569 313.242927 52.787088 308.541436 53.6357832 330.917948 19 354.131408 54.536138 349.140834 54.0892406 367.810038 88.502805 358.238355 89.4515396 385.613631 132.992472 371.769577 130.165128 388 155.916262 340.171885 161.241312 343.305121 201.225924"></polygon>
                <polygon id="Path-12-Copy-14" fill="#182738" transform="translate(448.000000, 145.500000) scale(-1, 1) translate(-448.000000, -145.500000) " points="442.223925 199 444.522744 167.428701 419 170.251703 430.654183 145.149804 422.675824 143.694621 431.919919 129.479644 426.420696 129.595693 436.852683 109.909003 434.327808 110.358858 446.344824 92 458.811312 110.836095 456.131188 110.599215 466.157243 128.840285 461.016894 129.343166 475.718431 152.422239 468.283662 150.923593 477 164.573101 451.314531 167.395668 452.997194 198.589698"></polygon>
                <polygon id="Path-12-Copy-8" fill="#182738" transform="translate(652.000000, 155.000000) scale(-1, 1) translate(-652.000000, -155.000000) " points="647.020625 203 649.002366 173.874931 627 176.377798 637.046709 154.122506 630.168814 152.832345 638.137861 140.229375 633.397152 140.332264 642.390244 122.878085 640.213628 123.276925 650.573124 107 661.320096 123.700043 659.009645 123.490026 667.652795 139.66252 663.221461 140.108374 675.895199 160.570233 669.485915 159.241536 677 171.343161 654.857354 173.845644 656.307926 202.636227"></polygon>
            </g>
        </g>
    </g>
</svg>